<svg xmlns="http://www.w3.org/2000/svg" width="430" height="730" fill="none"><g clip-path="url(#a)"><path fill="#FDFDFF" d="M0 0h430v730H0z"/><path fill="#fff" d="M0 0h430v730H0z"/><g filter="url(#b)"><rect width="80" height="80" x="269" y="452" fill="#FDFDFF" rx="12" transform="rotate(30 269 452)"/></g><g filter="url(#c)"><rect width="80" height="80" x="301.71" y="360" fill="#FDFDFF" rx="12" transform="rotate(15 301.71 360)"/></g><g filter="url(#d)"><rect width="80" height="80" x="243" y="319" fill="#FDFDFF" rx="12" transform="rotate(-30 243 319)"/></g><g filter="url(#e)"><rect width="80" height="80" x="188.71" y="388" fill="#FDFDFF" rx="12" transform="rotate(15 188.71 388)"/></g><g filter="url(#f)"><rect width="80" height="80" x="186.71" y="211" fill="#FDFDFF" rx="12" transform="rotate(15 186.71 211)"/><rect width="79" height="79" x="187.064" y="211.612" stroke="#CED9DF" stroke-opacity=".2" rx="11.5" transform="rotate(15 187.064 211.612)"/></g><g filter="url(#g)"><rect width="80" height="80" x="277" y="272" fill="#FDFDFF" rx="12" transform="rotate(-30 277 272)"/><rect width="79" height="79" x="277.683" y="272.183" stroke="#CED9DF" stroke-opacity=".2" rx="11.5" transform="rotate(-30 277.683 272.183)"/></g><g filter="url(#h)"><rect width="80" height="80" x="257" y="146" fill="#FDFDFF" rx="12" transform="rotate(30 257 146)"/><rect width="79" height="79" x="257.183" y="146.683" stroke="#CED9DF" stroke-opacity=".2" rx="11.5" transform="rotate(30 257.183 146.683)"/></g><g filter="url(#i)"><rect width="80" height="80" x="119" y="129" fill="#FDFDFF" rx="12"/><rect width="79" height="79" x="119.5" y="129.5" stroke="#CED9DF" stroke-opacity=".2" rx="11.5"/></g><g filter="url(#j)"><rect width="80" height="80" x="52" y="260" fill="#FDFDFF" rx="12" transform="rotate(-30 52 260)"/><rect width="79" height="79" x="52.683" y="260.183" stroke="#CED9DF" stroke-opacity=".2" rx="11.5" transform="rotate(-30 52.683 260.183)"/></g><g filter="url(#k)"><rect width="80" height="80" x="22.35" y="185.349" fill="#FDFDFF" rx="12" transform="rotate(-30 22.35 185.349)"/><rect width="79" height="79" x="23.033" y="185.532" stroke="#CED9DF" stroke-opacity=".2" rx="11.5" transform="rotate(-30 23.033 185.532)"/></g><g filter="url(#l)"><path fill="#FDFDFF" d="M191.584 561.66c12.586 0 22.884-7.665 22.884-17.033 0-9.368-10.298-17.033-22.884-17.033h-1.144c0-2.555 1.144-5.11 1.144-8.517 0-18.736-20.595-34.066-45.768-34.066-9.153 0-17.162 1.703-25.172 5.11-3.432-7.665-13.73-13.627-26.316-13.627-16.019 0-28.605 9.369-28.605 21.292 0 5.11 2.288 9.368 6.865 13.626-2.288-.851-4.577-.851-6.865-.851-19.451 0-34.326 11.071-34.326 25.55 0 14.478 14.875 25.549 34.326 25.549h125.861Z"/></g><g filter="url(#m)"><path fill="#FDFDFF" d="M40.55 536.111c-12.586 0-22.883 7.665-22.883 17.033 0 9.368 10.297 17.033 22.883 17.033h1.145c0 2.555-1.145 5.11-1.145 8.517 0 18.736 20.596 34.066 45.768 34.066 9.154 0 17.163-1.703 25.173-5.11 3.432 7.665 13.73 13.627 26.316 13.627 16.019 0 28.605-9.368 28.605-21.292 0-5.11-2.288-9.368-6.865-13.626 2.288.851 4.577.851 6.865.851 19.451 0 34.326-11.071 34.326-25.549 0-14.479-14.875-25.55-34.326-25.55H40.55Z"/></g></g><defs><filter id="b" width="180.501" height="180.501" x="213.39" y="456.39" color-interpolation-filters="sRGB" filterUnits="userSpaceOnUse"><feFlood flood-opacity="0" result="BackgroundImageFix"/><feColorMatrix in="SourceAlpha" result="hardAlpha" values="0 0 0 0 0 0 0 0 0 0 0 0 0 0 0 0 0 0 127 0"/><feOffset dx="20" dy="40"/><feGaussianBlur stdDeviation="20"/><feComposite in2="hardAlpha" operator="out"/><feColorMatrix values="0 0 0 0 0.807843 0 0 0 0 0.85098 0 0 0 0 0.87451 0 0 0 1 0"/><feBlend in2="BackgroundImageFix" result="effect1_dropShadow_305_456"/><feBlend in="SourceGraphic" in2="effect1_dropShadow_305_456" result="shape"/></filter><filter id="c" width="172.592" height="172.592" x="263.698" y="362.694" color-interpolation-filters="sRGB" filterUnits="userSpaceOnUse"><feFlood flood-opacity="0" result="BackgroundImageFix"/><feColorMatrix in="SourceAlpha" result="hardAlpha" values="0 0 0 0 0 0 0 0 0 0 0 0 0 0 0 0 0 0 127 0"/><feOffset dx="20" dy="40"/><feGaussianBlur stdDeviation="20"/><feComposite in2="hardAlpha" operator="out"/><feColorMatrix values="0 0 0 0 0.807843 0 0 0 0 0.85098 0 0 0 0 0.87451 0 0 0 1 0"/><feBlend in2="BackgroundImageFix" result="effect1_dropShadow_305_456"/><feBlend in="SourceGraphic" in2="effect1_dropShadow_305_456" result="shape"/></filter><filter id="d" width="180.501" height="180.501" x="227.39" y="283.39" color-interpolation-filters="sRGB" filterUnits="userSpaceOnUse"><feFlood flood-opacity="0" result="BackgroundImageFix"/><feColorMatrix in="SourceAlpha" result="hardAlpha" values="0 0 0 0 0 0 0 0 0 0 0 0 0 0 0 0 0 0 127 0"/><feOffset dx="20" dy="40"/><feGaussianBlur stdDeviation="20"/><feComposite in2="hardAlpha" operator="out"/><feColorMatrix values="0 0 0 0 0.807843 0 0 0 0 0.85098 0 0 0 0 0.87451 0 0 0 1 0"/><feBlend in2="BackgroundImageFix" result="effect1_dropShadow_305_456"/><feBlend in="SourceGraphic" in2="effect1_dropShadow_305_456" result="shape"/></filter><filter id="e" width="172.592" height="172.592" x="150.698" y="390.694" color-interpolation-filters="sRGB" filterUnits="userSpaceOnUse"><feFlood flood-opacity="0" result="BackgroundImageFix"/><feColorMatrix in="SourceAlpha" result="hardAlpha" values="0 0 0 0 0 0 0 0 0 0 0 0 0 0 0 0 0 0 127 0"/><feOffset dx="20" dy="40"/><feGaussianBlur stdDeviation="20"/><feComposite in2="hardAlpha" operator="out"/><feColorMatrix values="0 0 0 0 0.807843 0 0 0 0 0.85098 0 0 0 0 0.87451 0 0 0 1 0"/><feBlend in2="BackgroundImageFix" result="effect1_dropShadow_305_456"/><feBlend in="SourceGraphic" in2="effect1_dropShadow_305_456" result="shape"/></filter><filter id="f" width="172.592" height="172.592" x="148.698" y="213.694" color-interpolation-filters="sRGB" filterUnits="userSpaceOnUse"><feFlood flood-opacity="0" result="BackgroundImageFix"/><feColorMatrix in="SourceAlpha" result="hardAlpha" values="0 0 0 0 0 0 0 0 0 0 0 0 0 0 0 0 0 0 127 0"/><feOffset dx="20" dy="40"/><feGaussianBlur stdDeviation="20"/><feComposite in2="hardAlpha" operator="out"/><feColorMatrix values="0 0 0 0 0.807843 0 0 0 0 0.85098 0 0 0 0 0.87451 0 0 0 1 0"/><feBlend in2="BackgroundImageFix" result="effect1_dropShadow_305_456"/><feBlend in="SourceGraphic" in2="effect1_dropShadow_305_456" result="shape"/></filter><filter id="g" width="180.501" height="180.501" x="261.39" y="236.39" color-interpolation-filters="sRGB" filterUnits="userSpaceOnUse"><feFlood flood-opacity="0" result="BackgroundImageFix"/><feColorMatrix in="SourceAlpha" result="hardAlpha" values="0 0 0 0 0 0 0 0 0 0 0 0 0 0 0 0 0 0 127 0"/><feOffset dx="20" dy="40"/><feGaussianBlur stdDeviation="20"/><feComposite in2="hardAlpha" operator="out"/><feColorMatrix values="0 0 0 0 0.807843 0 0 0 0 0.85098 0 0 0 0 0.87451 0 0 0 1 0"/><feBlend in2="BackgroundImageFix" result="effect1_dropShadow_305_456"/><feBlend in="SourceGraphic" in2="effect1_dropShadow_305_456" result="shape"/></filter><filter id="h" width="180.501" height="180.501" x="201.39" y="150.39" color-interpolation-filters="sRGB" filterUnits="userSpaceOnUse"><feFlood flood-opacity="0" result="BackgroundImageFix"/><feColorMatrix in="SourceAlpha" result="hardAlpha" values="0 0 0 0 0 0 0 0 0 0 0 0 0 0 0 0 0 0 127 0"/><feOffset dx="20" dy="40"/><feGaussianBlur stdDeviation="20"/><feComposite in2="hardAlpha" operator="out"/><feColorMatrix values="0 0 0 0 0.807843 0 0 0 0 0.85098 0 0 0 0 0.87451 0 0 0 1 0"/><feBlend in2="BackgroundImageFix" result="effect1_dropShadow_305_456"/><feBlend in="SourceGraphic" in2="effect1_dropShadow_305_456" result="shape"/></filter><filter id="i" width="160" height="160" x="99" y="129" color-interpolation-filters="sRGB" filterUnits="userSpaceOnUse"><feFlood flood-opacity="0" result="BackgroundImageFix"/><feColorMatrix in="SourceAlpha" result="hardAlpha" values="0 0 0 0 0 0 0 0 0 0 0 0 0 0 0 0 0 0 127 0"/><feOffset dx="20" dy="40"/><feGaussianBlur stdDeviation="20"/><feComposite in2="hardAlpha" operator="out"/><feColorMatrix values="0 0 0 0 0.807843 0 0 0 0 0.85098 0 0 0 0 0.87451 0 0 0 1 0"/><feBlend in2="BackgroundImageFix" result="effect1_dropShadow_305_456"/><feBlend in="SourceGraphic" in2="effect1_dropShadow_305_456" result="shape"/></filter><filter id="j" width="180.501" height="180.501" x="36.39" y="224.39" color-interpolation-filters="sRGB" filterUnits="userSpaceOnUse"><feFlood flood-opacity="0" result="BackgroundImageFix"/><feColorMatrix in="SourceAlpha" result="hardAlpha" values="0 0 0 0 0 0 0 0 0 0 0 0 0 0 0 0 0 0 127 0"/><feOffset dx="20" dy="40"/><feGaussianBlur stdDeviation="20"/><feComposite in2="hardAlpha" operator="out"/><feColorMatrix values="0 0 0 0 0.807843 0 0 0 0 0.85098 0 0 0 0 0.87451 0 0 0 1 0"/><feBlend in2="BackgroundImageFix" result="effect1_dropShadow_305_456"/><feBlend in="SourceGraphic" in2="effect1_dropShadow_305_456" result="shape"/></filter><filter id="k" width="180.501" height="180.501" x="6.74" y="149.739" color-interpolation-filters="sRGB" filterUnits="userSpaceOnUse"><feFlood flood-opacity="0" result="BackgroundImageFix"/><feColorMatrix in="SourceAlpha" result="hardAlpha" values="0 0 0 0 0 0 0 0 0 0 0 0 0 0 0 0 0 0 127 0"/><feOffset dx="20" dy="40"/><feGaussianBlur stdDeviation="20"/><feComposite in2="hardAlpha" operator="out"/><feColorMatrix values="0 0 0 0 0.807843 0 0 0 0 0.85098 0 0 0 0 0.87451 0 0 0 1 0"/><feBlend in2="BackgroundImageFix" result="effect1_dropShadow_305_456"/><feBlend in="SourceGraphic" in2="effect1_dropShadow_305_456" result="shape"/></filter><filter id="l" width="263.071" height="165.166" x="11.397" y="476.494" color-interpolation-filters="sRGB" filterUnits="userSpaceOnUse"><feFlood flood-opacity="0" result="BackgroundImageFix"/><feColorMatrix in="SourceAlpha" result="hardAlpha" values="0 0 0 0 0 0 0 0 0 0 0 0 0 0 0 0 0 0 127 0"/><feOffset dx="20" dy="40"/><feGaussianBlur stdDeviation="20"/><feComposite in2="hardAlpha" operator="out"/><feColorMatrix values="0 0 0 0 0.807843 0 0 0 0 0.85098 0 0 0 0 0.87451 0 0 0 1 0"/><feBlend in2="BackgroundImageFix" result="effect1_dropShadow_305_456"/><feBlend in="SourceGraphic" in2="effect1_dropShadow_305_456" result="shape"/></filter><filter id="m" width="263.071" height="165.166" x="-2.333" y="536.111" color-interpolation-filters="sRGB" filterUnits="userSpaceOnUse"><feFlood flood-opacity="0" result="BackgroundImageFix"/><feColorMatrix in="SourceAlpha" result="hardAlpha" values="0 0 0 0 0 0 0 0 0 0 0 0 0 0 0 0 0 0 127 0"/><feOffset dx="20" dy="40"/><feGaussianBlur stdDeviation="20"/><feComposite in2="hardAlpha" operator="out"/><feColorMatrix values="0 0 0 0 0.807843 0 0 0 0 0.85098 0 0 0 0 0.87451 0 0 0 1 0"/><feBlend in2="BackgroundImageFix" result="effect1_dropShadow_305_456"/><feBlend in="SourceGraphic" in2="effect1_dropShadow_305_456" result="shape"/></filter><clipPath id="a"><path fill="#fff" d="M0 0h430v730H0z"/></clipPath></defs></svg>