<svg xmlns="http://www.w3.org/2000/svg" width="139" height="137" fill="none"><g clip-path="url(#a)"><g filter="url(#b)"><path fill="#FDFDFF" d="M74.375 51C78.019 51 81 47.4 81 43s-2.981-8-6.625-8h-.331c0-1.2.331-2.4.331-4 0-8.8-5.963-16-13.25-16-2.65 0-4.969.8-7.288 2.4-.993-3.6-3.975-6.4-7.618-6.4-4.638 0-8.282 4.4-8.282 10 0 2.4.663 4.4 1.988 6.4-.662-.4-1.325-.4-1.987-.4C32.306 27 28 32.2 28 39s4.306 12 9.938 12h36.437Z"/></g><g filter="url(#c)"><path fill="#FDFDFF" d="M34.625 33C30.981 33 28 36.6 28 41s2.981 8 6.625 8h.331c0 1.2-.331 2.4-.331 4 0 8.8 5.962 16 13.25 16 2.65 0 4.969-.8 7.288-2.4.993 3.6 3.975 6.4 7.618 6.4 4.638 0 8.282-4.4 8.282-10 0-2.4-.663-4.4-1.988-6.4.662.4 1.325.4 1.987.4C76.695 57 81 51.8 81 45s-4.306-12-9.938-12H34.626Z"/></g></g><defs><filter id="b" width="133" height="120" x="8" y="11" color-interpolation-filters="sRGB" filterUnits="userSpaceOnUse"><feFlood flood-opacity="0" result="BackgroundImageFix"/><feColorMatrix in="SourceAlpha" result="hardAlpha" values="0 0 0 0 0 0 0 0 0 0 0 0 0 0 0 0 0 0 127 0"/><feOffset dx="-10" dy="10"/><feGaussianBlur stdDeviation="5"/><feComposite in2="hardAlpha" operator="out"/><feColorMatrix values="0 0 0 0 0 0 0 0 0 0 0 0 0 0 0 0 0 0 0.1 0"/><feBlend in2="BackgroundImageFix" result="effect1_dropShadow_300_447"/><feColorMatrix in="SourceAlpha" result="hardAlpha" values="0 0 0 0 0 0 0 0 0 0 0 0 0 0 0 0 0 0 127 0"/><feOffset dx="20" dy="40"/><feGaussianBlur stdDeviation="20"/><feComposite in2="hardAlpha" operator="out"/><feColorMatrix values="0 0 0 0 0.807843 0 0 0 0 0.85098 0 0 0 0 0.87451 0 0 0 1 0"/><feBlend in2="effect1_dropShadow_300_447" result="effect2_dropShadow_300_447"/><feBlend in="SourceGraphic" in2="effect2_dropShadow_300_447" result="shape"/></filter><filter id="c" width="133" height="120" x="8" y="33" color-interpolation-filters="sRGB" filterUnits="userSpaceOnUse"><feFlood flood-opacity="0" result="BackgroundImageFix"/><feColorMatrix in="SourceAlpha" result="hardAlpha" values="0 0 0 0 0 0 0 0 0 0 0 0 0 0 0 0 0 0 127 0"/><feOffset dx="-10" dy="10"/><feGaussianBlur stdDeviation="5"/><feComposite in2="hardAlpha" operator="out"/><feColorMatrix values="0 0 0 0 0 0 0 0 0 0 0 0 0 0 0 0 0 0 0.1 0"/><feBlend in2="BackgroundImageFix" result="effect1_dropShadow_300_447"/><feColorMatrix in="SourceAlpha" result="hardAlpha" values="0 0 0 0 0 0 0 0 0 0 0 0 0 0 0 0 0 0 127 0"/><feOffset dx="20" dy="40"/><feGaussianBlur stdDeviation="20"/><feComposite in2="hardAlpha" operator="out"/><feColorMatrix values="0 0 0 0 0.807843 0 0 0 0 0.85098 0 0 0 0 0.87451 0 0 0 1 0"/><feBlend in2="effect1_dropShadow_300_447" result="effect2_dropShadow_300_447"/><feBlend in="SourceGraphic" in2="effect2_dropShadow_300_447" result="shape"/></filter><clipPath id="a"><path fill="#fff" d="M0 0h139v137H0z"/></clipPath></defs></svg>