<svg xmlns="http://www.w3.org/2000/svg" width="267" height="271" fill="none"><g filter="url(#a)"><path fill="#FDFDFF" d="M165 129c5.5 0 10-3.6 10-8s-4.5-8-10-8h-.5c0-1.2.5-2.4.5-4 0-8.8-9-16-20-16-4 0-7.5.8-11 2.4-1.5-3.6-6-6.4-11.5-6.4-7 0-12.5 4.4-12.5 10 0 2.4 1 4.4 3 6.4-1-.4-2-.4-3-.4-8.5 0-15 5.2-15 12s6.5 12 15 12h55Z"/></g><g filter="url(#b)"><path fill="#FDFDFF" d="M99 117c-5.5 0-10 3.6-10 8s4.5 8 10 8h.5c0 1.2-.5 2.4-.5 4 0 8.8 9 16 20 16 4 0 7.5-.8 11-2.4 1.5 3.6 6 6.4 11.5 6.4 7 0 12.5-4.4 12.5-10 0-2.4-1-4.4-3-6.4 1 .4 2 .4 3 .4 8.5 0 15-5.2 15-12s-6.5-12-15-12H99Z"/></g><defs><filter id="a" width="160" height="120" x="75" y="89" color-interpolation-filters="sRGB" filterUnits="userSpaceOnUse"><feFlood flood-opacity="0" result="BackgroundImageFix"/><feColorMatrix in="SourceAlpha" result="hardAlpha" values="0 0 0 0 0 0 0 0 0 0 0 0 0 0 0 0 0 0 127 0"/><feOffset dx="20" dy="40"/><feGaussianBlur stdDeviation="20"/><feComposite in2="hardAlpha" operator="out"/><feColorMatrix values="0 0 0 0 0.807843 0 0 0 0 0.85098 0 0 0 0 0.87451 0 0 0 1 0"/><feBlend in2="BackgroundImageFix" result="effect1_dropShadow_303_451"/><feBlend in="SourceGraphic" in2="effect1_dropShadow_303_451" result="shape"/></filter><filter id="b" width="160" height="120" x="69" y="117" color-interpolation-filters="sRGB" filterUnits="userSpaceOnUse"><feFlood flood-opacity="0" result="BackgroundImageFix"/><feColorMatrix in="SourceAlpha" result="hardAlpha" values="0 0 0 0 0 0 0 0 0 0 0 0 0 0 0 0 0 0 127 0"/><feOffset dx="20" dy="40"/><feGaussianBlur stdDeviation="20"/><feComposite in2="hardAlpha" operator="out"/><feColorMatrix values="0 0 0 0 0.807843 0 0 0 0 0.85098 0 0 0 0 0.87451 0 0 0 1 0"/><feBlend in2="BackgroundImageFix" result="effect1_dropShadow_303_451"/><feBlend in="SourceGraphic" in2="effect1_dropShadow_303_451" result="shape"/></filter></defs></svg>