<svg xmlns="http://www.w3.org/2000/svg" width="510" height="497" fill="none" viewBox="0 0 510 497">
  <g filter="url(#a)">
    <path fill="#FDFDFF" d="M315.168 236.579c10.506 0 19.101-6.602 19.101-14.671 0-8.07-8.595-14.672-19.101-14.672h-.955c0-2.201.955-4.401.955-7.336 0-16.138-17.191-29.343-38.202-29.343-7.64 0-14.326 1.467-21.011 4.402-2.865-6.603-11.461-11.738-21.966-11.738-13.371 0-23.877 8.07-23.877 18.34 0 4.401 1.91 8.069 5.73 11.737-1.91-.733-3.82-.733-5.73-.733-16.236 0-28.652 9.536-28.652 22.007 0 12.471 12.416 22.007 28.652 22.007h105.056Z"/>
  </g>
  <g filter="url(#b)">
    <path fill="#FDFDFF" d="M189.101 214.572c-10.505 0-19.101 6.602-19.101 14.672 0 8.069 8.596 14.671 19.101 14.671h.955c0 2.201-.955 4.402-.955 7.336 0 16.139 17.191 29.343 38.202 29.343 7.641 0 14.326-1.467 21.012-4.401 2.865 6.602 11.46 11.737 21.966 11.737 13.371 0 23.876-8.069 23.876-18.34 0-4.401-1.91-8.069-5.73-11.737 1.91.734 3.82.734 5.73.734 16.236 0 28.652-9.537 28.652-22.008 0-12.47-12.416-22.007-28.652-22.007H189.101Z"/>
  </g>
  <defs>
    <filter id="a" width="232.809" height="153.358" x="161.46" y="163.221" color-interpolation-filters="sRGB" filterUnits="userSpaceOnUse">
      <feFlood flood-opacity="0" result="BackgroundImageFix"/>
      <feColorMatrix in="SourceAlpha" result="hardAlpha" values="0 0 0 0 0 0 0 0 0 0 0 0 0 0 0 0 0 0 127 0"/>
      <feOffset dx="20" dy="40"/>
      <feGaussianBlur stdDeviation="20"/>
      <feComposite in2="hardAlpha" operator="out"/>
      <feColorMatrix values="0 0 0 0 0.807843 0 0 0 0 0.85098 0 0 0 0 0.87451 0 0 0 1 0"/>
      <feBlend in2="BackgroundImageFix" result="effect1_dropShadow_373_259"/>
      <feBlend in="SourceGraphic" in2="effect1_dropShadow_373_259" result="shape"/>
    </filter>
    <filter id="b" width="232.809" height="153.358" x="150" y="214.572" color-interpolation-filters="sRGB" filterUnits="userSpaceOnUse">
      <feFlood flood-opacity="0" result="BackgroundImageFix"/>
      <feColorMatrix in="SourceAlpha" result="hardAlpha" values="0 0 0 0 0 0 0 0 0 0 0 0 0 0 0 0 0 0 127 0"/>
      <feOffset dx="20" dy="40"/>
      <feGaussianBlur stdDeviation="20"/>
      <feComposite in2="hardAlpha" operator="out"/>
      <feColorMatrix values="0 0 0 0 0.807843 0 0 0 0 0.85098 0 0 0 0 0.87451 0 0 0 1 0"/>
      <feBlend in2="BackgroundImageFix" result="effect1_dropShadow_373_259"/>
      <feBlend in="SourceGraphic" in2="effect1_dropShadow_373_259" result="shape"/>
    </filter>
  </defs>
</svg>
