<svg xmlns="http://www.w3.org/2000/svg" width="403" height="496" fill="none"><g filter="url(#a)"><path fill="#FDFDFF" d="M343 52c0-28.6-29.07-52-64.6-52-35.53 0-64.6 23.4-64.6 52v2.6c-9.69 0-19.38-2.6-32.3-2.6-71.06 0-129.2 46.8-129.2 104 0 20.8 6.46 39 19.38 57.2C42.61 221 20 244.4 20 273c0 36.4 35.53 65 80.75 65 19.38 0 35.53-5.2 51.68-15.6-3.23 5.2-3.23 10.4-3.23 15.6 0 44.2 41.99 78 96.9 78 54.91 0 96.9-33.8 96.9-78V52Z"/></g><defs><filter id="a" width="403" height="496" x="0" y="0" color-interpolation-filters="sRGB" filterUnits="userSpaceOnUse"><feFlood flood-opacity="0" result="BackgroundImageFix"/><feColorMatrix in="SourceAlpha" result="hardAlpha" values="0 0 0 0 0 0 0 0 0 0 0 0 0 0 0 0 0 0 127 0"/><feOffset dx="20" dy="40"/><feGaussianBlur stdDeviation="20"/><feComposite in2="hardAlpha" operator="out"/><feColorMatrix values="0 0 0 0 0.807843 0 0 0 0 0.85098 0 0 0 0 0.87451 0 0 0 1 0"/><feBlend in2="BackgroundImageFix" result="effect1_dropShadow_485_245"/><feBlend in="SourceGraphic" in2="effect1_dropShadow_485_245" result="shape"/></filter></defs></svg>