<svg xmlns="http://www.w3.org/2000/svg" width="75" height="75" fill="none" viewBox="0 0 75 75">
  <path fill="#000" d="M44.025 41.019H43.1V30.806h3.119c2.547 0 3.419 1.469 3.419 3.063 0 1.593-.875 3.062-3.42 3.062h-2.19l-.003 4.088Zm0-4.944h2.313a2.006 2.006 0 0 0 2.29-2.203 2.005 2.005 0 0 0-2.287-2.206h-2.316v4.409Zm9.003-1.156a5.977 5.977 0 0 0-2.04.344v-.82a5.487 5.487 0 0 1 2.04-.368c2.044 0 2.575.928 2.575 2.287v4.657h-.531l-.206-.544a3.572 3.572 0 0 1-2.053.681 2.074 2.074 0 0 1-2.385-2.194c0-1.156.64-2.015 2.425-2.125l1.797-.109v-.381c0-.994-.353-1.428-1.622-1.428Zm-.244 2.656c-.968.094-1.39.6-1.39 1.39 0 .613.15 1.347 1.444 1.347a3.3 3.3 0 0 0 1.812-.543V37.4l-1.866.175Zm5.813 1.54a.787.787 0 0 0-.26.5c0 .344.166.494.52.532l2.312.275c1.281.137 1.869.64 1.869 1.825 0 1.662-1.663 2.312-3.541 2.312-1.906 0-3.05-.556-3.05-2.053a1.903 1.903 0 0 1 1.403-1.797v-.015a1.003 1.003 0 0 1-.438-.897 1.225 1.225 0 0 1 .52-.928 2.33 2.33 0 0 1-1.091-2.231c0-1.404.6-2.563 2.656-2.563.368-.002.734.045 1.09.137H62.9v.516l-1.14.328c.282.477.419 1.025.393 1.578 0 1.404-.6 2.563-2.656 2.563a4.364 4.364 0 0 1-.9-.085v.004Zm.397 1.838c-.9.203-1.663.625-1.663 1.5 0 1.006.763 1.29 2.166 1.29 1.36 0 2.64-.34 2.64-1.5 0-.69-.328-.965-1.156-1.062l-1.987-.228Zm2.272-4.316c0-.9-.175-1.73-1.77-1.73-1.593 0-1.771.83-1.771 1.73s.178 1.729 1.772 1.729 1.769-.832 1.769-1.732v.004Zm5.115-2.562c2.313 0 2.588 1.581 2.588 3.54v.438h-4.494c.056 1.184.369 2.26 1.906 2.26.768.04 1.535-.09 2.247-.382v.816a5.514 5.514 0 0 1-2.247.41c-2.3 0-2.86-1.579-2.86-3.541 0-1.963.56-3.541 2.86-3.541Zm-1.906 3.2h3.54c0-1.21-.068-2.353-1.634-2.353-1.581 0-1.865 1.125-1.906 2.353Zm8.128-.163c1.934.179 2.397.832 2.397 1.947 0 1.05-.666 2.097-2.737 2.097a6.708 6.708 0 0 1-2.029-.34V40c.659.221 1.35.327 2.044.313 1.416 0 1.797-.6 1.797-1.241 0-.625-.19-1.063-1.538-1.169-1.975-.178-2.384-.875-2.384-1.812 0-.97.625-2.016 2.547-2.016a5.083 5.083 0 0 1 1.96.344v.812a5.622 5.622 0 0 0-1.972-.312c-1.35 0-1.635.506-1.635 1.175 0 .593.244.906 1.55 1.018Zm-64.96-2.059h-3.33a.156.156 0 0 0-.157.156v1.632a.156.156 0 0 0 .157.156h1.3v2.028c-.36.084-.729.118-1.097.1-.954 0-2.285-.35-2.285-3.275s1.385-3.313 2.688-3.313a5.281 5.281 0 0 1 1.919.294.155.155 0 0 0 .13-.033.156.156 0 0 0 .057-.123L7.4 31.1a.147.147 0 0 0-.063-.122 5.359 5.359 0 0 0-2.821-.516c-2.235 0-4.516.944-4.516 5.5 0 4.557 2.616 5.235 4.819 5.235a5.425 5.425 0 0 0 2.931-.781.135.135 0 0 0 .05-.12V35.21a.156.156 0 0 0-.156-.156Zm17.329-4.044a.156.156 0 0 0-.156-.156h-1.878a.156.156 0 0 0-.157.156v3.629h-2.925v-3.629a.158.158 0 0 0-.096-.144.156.156 0 0 0-.06-.012h-1.875a.156.156 0 0 0-.156.156v9.828a.156.156 0 0 0 .156.157H19.7a.156.156 0 0 0 .156-.157v-4.203h2.928l-.006 4.203a.156.156 0 0 0 .156.157h1.885a.156.156 0 0 0 .156-.157l-.003-9.828Zm-13.716 1.288a1.212 1.212 0 1 0-1.21 1.225 1.218 1.218 0 0 0 1.21-1.225Zm-.131 6.462v-4.534a.156.156 0 0 0-.156-.156H9.094a.178.178 0 0 0-.16.175v6.5c0 .187.12.247.272.247h1.688c.187 0 .231-.094.231-.25v-1.982Zm21.138-4.678h-1.866a.156.156 0 0 0-.156.156v4.82c-.341.222-.74.342-1.147.343-.672 0-.85-.303-.85-.96v-4.2a.156.156 0 0 0-.157-.156H26.2a.158.158 0 0 0-.144.097.157.157 0 0 0-.012.06v4.518c0 1.957 1.087 2.435 2.587 2.435a4.368 4.368 0 0 0 2.219-.678c.016.134.039.267.069.4a.162.162 0 0 0 .137.084l1.203-.006a.156.156 0 0 0 .157-.157v-6.6a.155.155 0 0 0-.097-.144.158.158 0 0 0-.06-.012h.004Zm5.193-.219a3.503 3.503 0 0 0-1.778.47v-3.323a.156.156 0 0 0-.156-.156H33.64a.156.156 0 0 0-.157.156v9.828a.156.156 0 0 0 .157.157h1.306a.156.156 0 0 0 .137-.085c.038-.148.064-.298.078-.45.632.502 1.423.76 2.229.728 1.712 0 2.693-.868 2.693-3.9 0-3.03-1.568-3.425-2.628-3.425Zm-.734 5.535a2.238 2.238 0 0 1-1.084-.313v-3.112a2.48 2.48 0 0 1 .962-.313c.672-.059 1.319.144 1.319 1.744 0 1.688-.294 2.019-1.197 1.994Zm-20.235-5.331h-1.406l-.006-1.86c0-.072-.034-.106-.116-.106h-1.921c-.075 0-.113.031-.113.103v1.922l-1.031.25a.156.156 0 0 0-.11.15v1.21a.156.156 0 0 0 .157.156h.984v2.906c0 2.162 1.512 2.375 2.537 2.375a4.294 4.294 0 0 0 1.116-.188.143.143 0 0 0 .088-.137l.003-1.331a.156.156 0 0 0-.157-.157c-.08 0-.293.032-.509.032-.69 0-.925-.32-.925-.738v-2.762h1.41a.158.158 0 0 0 .144-.097.157.157 0 0 0 .012-.06v-1.512a.156.156 0 0 0-.156-.156Z"/>
</svg>
