<svg xmlns="http://www.w3.org/2000/svg" width="35" height="35" fill="none" viewBox="0 0 35 35">
  <path fill="#000" fill-rule="evenodd" d="M17.5 0C7.834 0 0 8.034 0 17.944c0 7.928 5.013 14.653 11.968 17.024.876.166 1.194-.386 1.194-.863 0-.425-.015-1.553-.023-3.052-4.868 1.085-5.895-2.406-5.895-2.406-.796-2.072-1.943-2.623-1.943-2.623-1.59-1.113.12-1.091.12-1.091 1.757.127 2.681 1.848 2.681 1.848 1.56 2.742 4.096 1.949 5.093 1.492.158-1.161.612-1.95 1.111-2.4-3.885-.453-7.97-1.992-7.97-8.867 0-1.96.681-3.562 1.8-4.817-.179-.451-.78-2.276.172-4.747 0 0 1.47-.482 4.813 1.84 1.395-.4 2.892-.599 4.38-.605 1.487.007 2.985.206 4.382.606 3.341-2.323 4.808-1.841 4.808-1.841.955 2.471.354 4.296.174 4.747 1.122 1.255 1.799 2.857 1.799 4.817 0 6.891-4.091 8.41-7.99 8.852.628.554 1.188 1.652 1.188 3.326 0 2.397-.022 4.332-.022 4.92 0 .481.315 1.04 1.204.862C29.99 32.59 35 25.87 35 17.944 35 8.034 27.165 0 17.5 0Z" clip-rule="evenodd"/>
</svg>
