<svg xmlns="http://www.w3.org/2000/svg" width="30" height="30" fill="none" viewBox="0 0 30 30">
  <path fill="#242938" d="M22.969 0H7.03A7.031 7.031 0 0 0 0 7.031V22.97A7.031 7.031 0 0 0 7.031 30H22.97A7.031 7.031 0 0 0 30 22.969V7.03A7.031 7.031 0 0 0 22.969 0Z"/>
  <path fill="#4285F4" d="M4.88 23.792h3.728v-9.055L3.28 10.742v11.452c0 .884.717 1.598 1.598 1.598Z"/>
  <path fill="#34A853" d="M21.392 23.792h3.729c.884 0 1.598-.716 1.598-1.598V10.742l-5.327 3.995"/>
  <path fill="#FBBC04" d="M21.392 7.812v6.925l5.327-3.995V8.61c0-1.976-2.256-3.103-3.835-1.918"/>
  <path fill="#EA4335" d="M8.608 14.737V7.812L15 12.606l6.392-4.794v6.925L15 19.531"/>
  <path fill="#C5221F" d="M3.281 8.611v2.13l5.327 3.996V7.812L7.116 6.694C5.534 5.508 3.281 6.635 3.281 8.61Z"/>
</svg>
