<svg xmlns="http://www.w3.org/2000/svg" width="35" height="35" fill="none" viewBox="0 0 35 35">
  <path fill="#000" d="M33.858 18.424a5.362 5.362 0 0 0 1.142-3.3c0-1.907-1.098-3.712-2.866-4.719a3.03 3.03 0 0 0-1.5-.395H20.142l.263-5.22a4.47 4.47 0 0 0-1.29-3.371A4.668 4.668 0 0 0 17.561.366 4.786 4.786 0 0 0 15.706 0c-2.275 0-4.287 1.486-4.891 3.614L7.057 16.823H1.4c-.774 0-1.4.607-1.4 1.359V33.64C0 34.393.626 35 1.4 35h26.307c.402 0 .796-.076 1.16-.23 2.082-.862 3.425-2.836 3.425-5.028 0-.535-.079-1.062-.236-1.571a5.361 5.361 0 0 0 1.142-3.3 5.33 5.33 0 0 0-.237-1.572 5.362 5.362 0 0 0 1.142-3.3 5.643 5.643 0 0 0-.245-1.575ZM3.15 31.942V19.881h3.544v12.061H3.15ZM30.993 16.95l-.959.807.608 1.079c.2.355.305.754.302 1.16 0 .7-.315 1.367-.857 1.825l-.958.807.608 1.08c.2.354.304.753.302 1.159 0 .7-.315 1.367-.858 1.826l-.958.807.608 1.078c.2.356.305.755.302 1.16 0 .951-.577 1.81-1.47 2.2H9.493V19.745l4.354-15.311a1.87 1.87 0 0 1 .686-.986c.333-.248.74-.383 1.16-.386.333 0 .66.094.923.285.433.314.665.79.639 1.295l-.42 8.426H30.59c.779.463 1.26 1.245 1.26 2.056 0 .7-.315 1.363-.858 1.826Z"/>
</svg>
