<svg xmlns="http://www.w3.org/2000/svg" width="35" height="35" fill="none" viewBox="0 0 35 35">
  <g clip-path="url(#a)">
    <path fill="#000" d="M26.25 4.375a4.375 4.375 0 0 1 4.375 4.375v17.5a4.375 4.375 0 0 1-4.375 4.375H8.75a4.375 4.375 0 0 1-4.375-4.375V8.75A4.375 4.375 0 0 1 8.75 4.375h17.5Zm0 2.917H8.75A1.458 1.458 0 0 0 7.292 8.75v17.5a1.458 1.458 0 0 0 1.458 1.458h17.5a1.458 1.458 0 0 0 1.458-1.458V8.75a1.458 1.458 0 0 0-1.458-1.458Zm-14.583 7.291a1.458 1.458 0 0 1 1.448 1.288l.01.17v7.292a1.458 1.458 0 0 1-2.906.171l-.01-.17v-7.292a1.458 1.458 0 0 1 1.458-1.459Zm4.375-1.458a1.458 1.458 0 0 1 1.435 1.197c.293-.17.596-.322.908-.456.973-.416 2.43-.645 3.745-.232.69.219 1.383.627 1.896 1.323.46.62.707 1.373.757 2.22l.009.323v5.833a1.459 1.459 0 0 1-2.907.171l-.01-.17V17.5c0-.481-.117-.706-.192-.81a.799.799 0 0 0-.428-.274c-.507-.16-1.238-.075-1.723.132a6.197 6.197 0 0 0-1.853 1.255l-.179.193v5.337a1.458 1.458 0 0 1-2.906.171l-.01-.17v-8.75a1.459 1.459 0 0 1 1.458-1.459Zm-4.375-2.917a1.459 1.459 0 1 1 0 2.917 1.459 1.459 0 0 1 0-2.917Z"/>
  </g>
  <defs>
    <clipPath id="a">
      <path fill="#fff" d="M0 0h35v35H0z"/>
    </clipPath>
  </defs>
</svg>
