<svg xmlns="http://www.w3.org/2000/svg" width="459" height="448" fill="none"><g clip-path="url(#a)"><g filter="url(#b)"><path fill="#FDFDFF" d="M165 129c5.5 0 10-3.6 10-8s-4.5-8-10-8h-.5c0-1.2.5-2.4.5-4 0-8.8-9-16-20-16-4 0-7.5.8-11 2.4-1.5-3.6-6-6.4-11.5-6.4-7 0-12.5 4.4-12.5 10 0 2.4 1 4.4 3 6.4-1-.4-2-.4-3-.4-8.5 0-15 5.2-15 12s6.5 12 15 12h55Z"/></g><g filter="url(#c)"><path fill="#FDFDFF" d="M99 117c-5.5 0-10 3.6-10 8s4.5 8 10 8h.5c0 1.2-.5 2.4-.5 4 0 8.8 9 16 20 16 4 0 7.5-.8 11-2.4 1.5 3.6 6 6.4 11.5 6.4 7 0 12.5-4.4 12.5-10 0-2.4-1-4.4-3-6.4 1 .4 2 .4 3 .4 8.5 0 15-5.2 15-12s-6.5-12-15-12H99Z"/></g><g filter="url(#d)"><path fill="#FDFDFF" d="M117.875 72c5.019 0 9.125-3.6 9.125-8s-4.106-8-9.125-8h-.456c0-1.2.456-2.4.456-4 0-8.8-8.212-16-18.25-16-3.65 0-6.844.8-10.037 2.4-1.37-3.6-5.475-6.4-10.494-6.4-6.388 0-11.406 4.4-11.406 10 0 2.4.912 4.4 2.737 6.4-.912-.4-1.825-.4-2.737-.4C59.93 48 54 53.2 54 60s5.931 12 13.688 12h50.187Z"/></g><g filter="url(#e)"><path fill="#FDFDFF" d="M63.125 52C58.106 52 54 55.6 54 60s4.106 8 9.125 8h.456c0 1.2-.456 2.4-.456 4 0 8.8 8.213 16 18.25 16 3.65 0 6.844-.8 10.037-2.4 1.37 3.6 5.475 6.4 10.494 6.4 6.388 0 11.406-4.4 11.406-10 0-2.4-.912-4.4-2.737-6.4.912.4 1.825.4 2.737.4C121.069 76 127 70.8 127 64s-5.931-12-13.688-12H63.125Z"/></g></g><defs><filter id="b" width="160" height="120" x="75" y="89" color-interpolation-filters="sRGB" filterUnits="userSpaceOnUse"><feFlood flood-opacity="0" result="BackgroundImageFix"/><feColorMatrix in="SourceAlpha" result="hardAlpha" values="0 0 0 0 0 0 0 0 0 0 0 0 0 0 0 0 0 0 127 0"/><feOffset dx="20" dy="40"/><feGaussianBlur stdDeviation="20"/><feComposite in2="hardAlpha" operator="out"/><feColorMatrix values="0 0 0 0 0.807843 0 0 0 0 0.85098 0 0 0 0 0.87451 0 0 0 1 0"/><feBlend in2="BackgroundImageFix" result="effect1_dropShadow_342_181"/><feBlend in="SourceGraphic" in2="effect1_dropShadow_342_181" result="shape"/></filter><filter id="c" width="160" height="120" x="69" y="117" color-interpolation-filters="sRGB" filterUnits="userSpaceOnUse"><feFlood flood-opacity="0" result="BackgroundImageFix"/><feColorMatrix in="SourceAlpha" result="hardAlpha" values="0 0 0 0 0 0 0 0 0 0 0 0 0 0 0 0 0 0 127 0"/><feOffset dx="20" dy="40"/><feGaussianBlur stdDeviation="20"/><feComposite in2="hardAlpha" operator="out"/><feColorMatrix values="0 0 0 0 0.807843 0 0 0 0 0.85098 0 0 0 0 0.87451 0 0 0 1 0"/><feBlend in2="BackgroundImageFix" result="effect1_dropShadow_342_181"/><feBlend in="SourceGraphic" in2="effect1_dropShadow_342_181" result="shape"/></filter><filter id="d" width="153" height="120" x="34" y="32" color-interpolation-filters="sRGB" filterUnits="userSpaceOnUse"><feFlood flood-opacity="0" result="BackgroundImageFix"/><feColorMatrix in="SourceAlpha" result="hardAlpha" values="0 0 0 0 0 0 0 0 0 0 0 0 0 0 0 0 0 0 127 0"/><feOffset dx="20" dy="40"/><feGaussianBlur stdDeviation="20"/><feComposite in2="hardAlpha" operator="out"/><feColorMatrix values="0 0 0 0 0.807843 0 0 0 0 0.85098 0 0 0 0 0.87451 0 0 0 1 0"/><feBlend in2="BackgroundImageFix" result="effect1_dropShadow_342_181"/><feBlend in="SourceGraphic" in2="effect1_dropShadow_342_181" result="shape"/></filter><filter id="e" width="153" height="120" x="34" y="52" color-interpolation-filters="sRGB" filterUnits="userSpaceOnUse"><feFlood flood-opacity="0" result="BackgroundImageFix"/><feColorMatrix in="SourceAlpha" result="hardAlpha" values="0 0 0 0 0 0 0 0 0 0 0 0 0 0 0 0 0 0 127 0"/><feOffset dx="20" dy="40"/><feGaussianBlur stdDeviation="20"/><feComposite in2="hardAlpha" operator="out"/><feColorMatrix values="0 0 0 0 0.807843 0 0 0 0 0.85098 0 0 0 0 0.87451 0 0 0 1 0"/><feBlend in2="BackgroundImageFix" result="effect1_dropShadow_342_181"/><feBlend in="SourceGraphic" in2="effect1_dropShadow_342_181" result="shape"/></filter><clipPath id="a"><path fill="#fff" d="M0 0h267v271H0z"/></clipPath></defs></svg>