<svg xmlns="http://www.w3.org/2000/svg" width="923" height="974" fill="none" viewBox="0 0 923 974">
  <g filter="url(#a)">
    <path fill="#FDFDFF" d="M435.375 346C449.469 346 461 332.86 461 316.8s-11.531-29.2-25.625-29.2h-1.281c0-4.38 1.281-8.76 1.281-14.6 0-32.12-23.063-58.4-51.25-58.4-10.25 0-19.219 2.92-28.188 8.76-3.843-13.14-15.375-23.36-29.468-23.36-17.938 0-32.031 16.06-32.031 36.5 0 8.76 2.562 16.06 7.687 23.36-2.562-1.46-5.125-1.46-7.687-1.46-21.782 0-38.438 18.98-38.438 43.8 0 24.82 16.656 43.8 38.438 43.8h140.937Z"/>
  </g>
  <g filter="url(#b)">
    <path fill="#FDFDFF" d="M542.875 542C557.794 542 570 528.86 570 512.8s-12.206-29.2-27.125-29.2h-1.356c0-4.38 1.356-8.76 1.356-14.6 0-32.12-24.412-58.4-54.25-58.4-10.85 0-20.344 2.92-29.838 8.76-4.068-13.14-16.274-23.36-31.193-23.36-18.988 0-33.906 16.06-33.906 36.5 0 8.76 2.712 16.06 8.137 23.36-2.712-1.46-5.425-1.46-8.137-1.46-23.057 0-40.688 18.98-40.688 43.8 0 24.82 17.631 43.8 40.688 43.8h149.187Z"/>
  </g>
  <g filter="url(#c)">
    <path fill="#FDFDFF" d="M380.125 469C365.206 469 353 482.14 353 498.2s12.206 29.2 27.125 29.2h1.356c0 4.38-1.356 8.76-1.356 14.6 0 32.12 24.412 58.4 54.25 58.4 10.85 0 20.344-2.92 29.838-8.76 4.068 13.14 16.274 23.36 31.193 23.36 18.988 0 33.906-16.06 33.906-36.5 0-8.76-2.712-16.06-8.137-23.36 2.712 1.46 5.425 1.46 8.137 1.46 23.057 0 40.688-18.98 40.688-43.8 0-24.82-17.631-43.8-40.688-43.8H380.125Z"/>
  </g>
  <g filter="url(#d)">
    <path fill="#FDFDFF" d="M281.625 280C267.531 280 256 293.14 256 309.2s11.531 29.2 25.625 29.2h1.281c0 4.38-1.281 8.76-1.281 14.6 0 32.12 23.063 58.4 51.25 58.4 10.25 0 19.219-2.92 28.188-8.76 3.843 13.14 15.375 23.36 29.468 23.36 17.938 0 32.031-16.06 32.031-36.5 0-8.76-2.562-16.06-7.687-23.36 2.562 1.46 5.125 1.46 7.687 1.46 21.782 0 38.438-18.98 38.438-43.8 0-24.82-16.656-43.8-38.438-43.8H281.625Z"/>
  </g>
  <defs>
    <filter id="a" width="285" height="226" x="236" y="200" color-interpolation-filters="sRGB" filterUnits="userSpaceOnUse">
      <feFlood flood-opacity="0" result="BackgroundImageFix"/>
      <feColorMatrix in="SourceAlpha" result="hardAlpha" values="0 0 0 0 0 0 0 0 0 0 0 0 0 0 0 0 0 0 127 0"/>
      <feOffset dx="20" dy="40"/>
      <feGaussianBlur stdDeviation="20"/>
      <feComposite in2="hardAlpha" operator="out"/>
      <feColorMatrix values="0 0 0 0 0.807843 0 0 0 0 0.85098 0 0 0 0 0.87451 0 0 0 1 0"/>
      <feBlend in2="BackgroundImageFix" result="effect1_dropShadow_489_243"/>
      <feBlend in="SourceGraphic" in2="effect1_dropShadow_489_243" result="shape"/>
    </filter>
    <filter id="b" width="297" height="226" x="333" y="396" color-interpolation-filters="sRGB" filterUnits="userSpaceOnUse">
      <feFlood flood-opacity="0" result="BackgroundImageFix"/>
      <feColorMatrix in="SourceAlpha" result="hardAlpha" values="0 0 0 0 0 0 0 0 0 0 0 0 0 0 0 0 0 0 127 0"/>
      <feOffset dx="20" dy="40"/>
      <feGaussianBlur stdDeviation="20"/>
      <feComposite in2="hardAlpha" operator="out"/>
      <feColorMatrix values="0 0 0 0 0.807843 0 0 0 0 0.85098 0 0 0 0 0.87451 0 0 0 1 0"/>
      <feBlend in2="BackgroundImageFix" result="effect1_dropShadow_489_243"/>
      <feBlend in="SourceGraphic" in2="effect1_dropShadow_489_243" result="shape"/>
    </filter>
    <filter id="c" width="297" height="226" x="333" y="469" color-interpolation-filters="sRGB" filterUnits="userSpaceOnUse">
      <feFlood flood-opacity="0" result="BackgroundImageFix"/>
      <feColorMatrix in="SourceAlpha" result="hardAlpha" values="0 0 0 0 0 0 0 0 0 0 0 0 0 0 0 0 0 0 127 0"/>
      <feOffset dx="20" dy="40"/>
      <feGaussianBlur stdDeviation="20"/>
      <feComposite in2="hardAlpha" operator="out"/>
      <feColorMatrix values="0 0 0 0 0.807843 0 0 0 0 0.85098 0 0 0 0 0.87451 0 0 0 1 0"/>
      <feBlend in2="BackgroundImageFix" result="effect1_dropShadow_489_243"/>
      <feBlend in="SourceGraphic" in2="effect1_dropShadow_489_243" result="shape"/>
    </filter>
    <filter id="d" width="285" height="226" x="236" y="280" color-interpolation-filters="sRGB" filterUnits="userSpaceOnUse">
      <feFlood flood-opacity="0" result="BackgroundImageFix"/>
      <feColorMatrix in="SourceAlpha" result="hardAlpha" values="0 0 0 0 0 0 0 0 0 0 0 0 0 0 0 0 0 0 127 0"/>
      <feOffset dx="20" dy="40"/>
      <feGaussianBlur stdDeviation="20"/>
      <feComposite in2="hardAlpha" operator="out"/>
      <feColorMatrix values="0 0 0 0 0.807843 0 0 0 0 0.85098 0 0 0 0 0.87451 0 0 0 1 0"/>
      <feBlend in2="BackgroundImageFix" result="effect1_dropShadow_489_243"/>
      <feBlend in="SourceGraphic" in2="effect1_dropShadow_489_243" result="shape"/>
    </filter>
  </defs>
</svg>
