<svg width="28" height="28" viewBox="0 0 28 28" fill="none" xmlns="http://www.w3.org/2000/svg">
<path fill-rule="evenodd" clip-rule="evenodd" d="M20.1577 3.04844C20.2702 2.77326 20.4834 2.55141 20.754 2.42819C21.0245 2.30496 21.3319 2.28966 21.6133 2.38541C21.8948 2.48116 22.129 2.68074 22.2683 2.94338C22.4076 3.20602 22.4413 3.51192 22.3627 3.79861L22.3183 3.92694L19.2733 11.4169L20.0398 11.6211C21.2648 11.9489 22.2845 12.9441 22.4782 14.3021C22.6438 15.4688 22.799 17.2421 22.5855 19.0691C22.3732 20.8798 21.7805 22.8934 20.314 24.3728C19.775 24.9164 19.0015 25.0028 18.4788 25.0121C17.8827 25.0214 17.1955 24.9304 16.4897 24.7904C15.071 24.5081 13.37 23.9854 11.76 23.4301L11.277 23.2609L10.3285 22.9179L9.41849 22.5784L8.56216 22.2483L7.42116 21.7956L6.46216 21.4048L5.50899 21.0023C5.32195 20.9233 5.15878 20.7968 5.03559 20.6354C4.91241 20.474 4.83348 20.2832 4.80661 20.0819C4.77975 19.8807 4.80587 19.6759 4.8824 19.4878C4.95894 19.2998 5.08323 19.1349 5.24299 19.0096C6.84949 17.7496 8.35799 16.3006 9.63083 14.9624L10.248 14.3044L10.5397 13.9848L11.0903 13.3699L11.347 13.0759L12.04 12.2651L12.4332 11.7914C12.8449 11.2864 13.3854 10.9019 13.9975 10.6787C14.6097 10.4554 15.2708 10.4018 15.911 10.5233L16.1432 10.5769L17.003 10.8068L20.1577 3.04844ZM12.25 15.5726C10.9727 16.9862 9.61762 18.3276 8.19116 19.5906C8.86238 19.862 9.53633 20.1265 10.213 20.3839C10.835 19.9406 11.3946 19.4155 11.8767 18.8229C12.0811 18.5799 12.2712 18.3251 12.446 18.0599L12.6117 17.7893C12.7652 17.5248 13.0164 17.3311 13.3113 17.25C13.6062 17.169 13.9211 17.2069 14.1883 17.3557C14.4555 17.5045 14.6536 17.7523 14.7399 18.0457C14.8262 18.3391 14.7939 18.6547 14.6498 18.9244C14.3768 19.4144 14.035 19.8741 13.6792 20.3058C13.3908 20.6564 13.0823 20.9898 12.7552 21.3044C13.2942 21.4888 13.8332 21.6638 14.3558 21.8248C14.791 21.5249 15.3008 20.9089 15.7628 20.2089C15.9487 19.9289 16.1245 19.6412 16.2902 19.3456L16.5282 18.8976C16.6654 18.6202 16.9072 18.4087 17.2004 18.3096C17.4936 18.2105 17.8141 18.2319 18.0915 18.3691C18.3689 18.5063 18.5804 18.7481 18.6795 19.0413C18.7786 19.3345 18.7572 19.655 18.62 19.9324C18.3528 20.4714 18.0413 20.9929 17.71 21.4946C17.4801 21.844 17.2332 22.182 16.9703 22.5073L17.4615 22.6029C17.8838 22.6811 18.3295 22.7359 18.732 22.6531C19.6257 21.7023 20.0888 20.3221 20.2673 18.7973C20.3085 18.4426 20.335 18.091 20.3467 17.7426L12.25 15.5726ZM15.5388 12.8309C15.3024 12.772 15.0539 12.7822 14.8231 12.8603C14.5923 12.9385 14.3888 13.0814 14.2368 13.2719L13.9533 13.6138L20.251 15.3008L20.1962 14.8434L20.1682 14.6311C20.125 14.3359 19.9162 14.0583 19.572 13.9194L19.4367 13.8751L15.5388 12.8309ZM6.49249 9.00194L6.56716 9.16527C6.8853 9.82338 7.38635 10.3759 8.01033 10.7566L8.12699 10.8243C8.13911 10.8312 8.14919 10.8412 8.15619 10.8533C8.16319 10.8654 8.16688 10.8791 8.16688 10.8931C8.16688 10.9071 8.16319 10.9208 8.15619 10.9329C8.14919 10.945 8.13911 10.955 8.12699 10.9619L8.01033 11.0296C7.38644 11.4111 6.88578 11.9645 6.56833 12.6233L6.49366 12.7854C6.48719 12.8002 6.47657 12.8127 6.46311 12.8215C6.44964 12.8303 6.43391 12.8349 6.41783 12.8349C6.40174 12.8349 6.38601 12.8303 6.37254 12.8215C6.35908 12.8127 6.34846 12.8002 6.34199 12.7854L6.26733 12.6221C5.94919 11.964 5.44814 11.4115 4.82416 11.0308L4.70749 10.9631C4.69537 10.9562 4.6853 10.9461 4.6783 10.9341C4.67129 10.922 4.6676 10.9082 4.6676 10.8943C4.6676 10.8803 4.67129 10.8666 4.6783 10.8545C4.6853 10.8424 4.69537 10.8324 4.70749 10.8254L4.82416 10.7578C5.44761 10.3761 5.94785 9.82276 6.26499 9.16411L6.33966 9.00194C6.34613 8.98722 6.35675 8.9747 6.37021 8.9659C6.38368 8.95711 6.39941 8.95243 6.41549 8.95243C6.43157 8.95243 6.44731 8.95711 6.46077 8.9659C6.47424 8.9747 6.48602 8.98722 6.49249 9.00194ZM9.79649 3.33311C9.84316 3.22811 9.99016 3.22811 10.0368 3.33311L10.1558 3.59211C10.6632 4.63933 11.461 5.51856 12.4542 6.12494L12.6373 6.23344C12.657 6.24433 12.6734 6.26031 12.6849 6.2797C12.6963 6.29908 12.7023 6.32118 12.7023 6.34369C12.7023 6.3662 12.6963 6.38829 12.6849 6.40768C12.6734 6.42707 12.657 6.44304 12.6373 6.45394L12.453 6.56127C11.4597 7.16797 10.6618 8.04761 10.1547 9.09527L10.038 9.35427C10.0277 9.37774 10.0108 9.3977 9.98937 9.41171C9.96793 9.42573 9.94286 9.4332 9.91724 9.4332C9.89162 9.4332 9.86656 9.42573 9.84512 9.41171C9.82367 9.3977 9.80678 9.37774 9.79649 9.35427L9.67749 9.09527C9.17033 8.04761 8.3725 7.16797 7.37916 6.56127L7.19483 6.45394C7.17513 6.44304 7.15872 6.42707 7.14729 6.40768C7.13585 6.38829 7.12983 6.3662 7.12983 6.34369C7.12983 6.32118 7.13585 6.29908 7.14729 6.2797C7.15872 6.26031 7.17513 6.24433 7.19483 6.23344L7.38033 6.12494C8.3735 5.51856 9.17132 4.63933 9.67866 3.59211L9.79533 3.33311H9.79649Z" fill="#E4CCFF"/>
</svg>
