<svg width="32" height="12" viewBox="0 0 32 12" fill="none" xmlns="http://www.w3.org/2000/svg">
<path d="M13.0824 8.42729H13.0682C13.0744 8.42729 13.0786 8.43387 13.0847 8.43529L13.0894 8.43434L13.0824 8.42729ZM13.0847 8.43529C13.0188 8.43576 12.8541 8.46964 12.6795 8.46964C12.1289 8.46964 11.9384 8.2174 11.9384 7.88893V5.69976H13.0607C13.1242 5.69976 13.1736 5.64329 13.1736 5.56658V4.3774C13.1736 4.31481 13.1172 4.25881 13.0607 4.25881H11.9388V2.78258C11.9388 2.72658 11.9035 2.69176 11.84 2.69176H10.3153C10.2513 2.69176 10.2165 2.72658 10.2165 2.78258V4.30117C10.2165 4.30117 9.44659 4.48987 9.39718 4.49693C9.37061 4.50336 9.34703 4.51866 9.33034 4.54031C9.31366 4.56196 9.30486 4.58866 9.30541 4.61599V5.56705C9.30541 5.64423 9.36188 5.69976 9.42541 5.69976H10.2089V7.99434C10.2089 9.70117 11.4089 9.87576 12.2278 9.87576C12.6024 9.87576 13.0541 9.75717 13.1247 9.72187C13.1671 9.70776 13.1882 9.65881 13.1882 9.60987V8.56046C13.1888 8.53079 13.1787 8.50191 13.1598 8.47903C13.1409 8.45616 13.1144 8.44081 13.0852 8.43576L13.0847 8.43529ZM29.8136 6.89552C29.8136 5.62964 29.2984 5.46164 28.7548 5.51764C28.3313 5.54587 27.9925 5.75529 27.9925 5.75529V8.2174C27.9925 8.2174 28.3384 8.45552 28.8536 8.46964C29.5807 8.49034 29.8136 8.23152 29.8136 6.89552ZM31.5294 6.78352C31.5294 9.18305 30.7459 9.86823 29.376 9.86823C28.2184 9.86823 27.5972 9.28799 27.5972 9.28799C27.5972 9.28799 27.5689 9.6094 27.5336 9.65176C27.5125 9.69364 27.4772 9.70729 27.4348 9.70729H26.3901C26.3195 9.70729 26.2555 9.65128 26.2555 9.5887L26.2696 1.8174C26.2706 1.78601 26.2836 1.75619 26.3059 1.73412C26.3283 1.71204 26.3582 1.6994 26.3896 1.69881H27.8936C27.925 1.6994 27.955 1.71204 27.9774 1.73412C27.9997 1.75619 28.0127 1.78601 28.0136 1.8174V4.45458C28.0136 4.45458 28.5925 4.08376 29.4395 4.08376L29.4325 4.06964C30.2795 4.06964 31.5294 4.38493 31.5294 6.78352ZM25.3732 4.25881H23.8908C23.8132 4.25881 23.7708 4.31481 23.7708 4.39152V8.1967C23.7708 8.1967 23.3821 8.46964 22.8532 8.46964C22.3233 8.46964 22.168 8.23152 22.168 7.70729V4.38493C22.1673 4.35338 22.1544 4.32332 22.132 4.30105C22.1097 4.27877 22.0796 4.266 22.048 4.2654H20.5374C20.5059 4.26588 20.4757 4.27853 20.4532 4.30072C20.4308 4.3229 20.4178 4.35291 20.4169 4.38446V7.95905C20.4169 9.49787 21.2856 9.88234 22.4786 9.88234C23.4598 9.88234 24.2574 9.34352 24.2574 9.34352C24.2574 9.34352 24.2932 9.61646 24.3139 9.65881C24.328 9.69364 24.3779 9.7214 24.4268 9.7214H25.3732C25.3891 9.7222 25.4049 9.71968 25.4198 9.71399C25.4347 9.7083 25.4482 9.69958 25.4595 9.68837C25.4708 9.67717 25.4796 9.66373 25.4854 9.64891C25.4912 9.6341 25.4939 9.61824 25.4932 9.60234L25.5073 4.3774C25.5073 4.31481 25.4508 4.25881 25.3732 4.25881ZM8.64094 4.25176H7.13741C7.07388 4.25176 7.01741 4.31481 7.01741 4.39152V9.52564C7.01741 9.6654 7.10918 9.71434 7.22918 9.71434H8.58447C8.72565 9.71434 8.76094 9.65129 8.76094 9.52564V4.37034C8.75998 4.33895 8.74699 4.30914 8.72465 4.28706C8.70231 4.26499 8.67234 4.25235 8.64094 4.25176ZM7.89977 1.88705C7.35624 1.88705 6.92565 2.31387 6.92565 2.85223C6.92565 3.39058 7.35624 3.8174 7.89977 3.8174C8.02623 3.8174 8.15145 3.79242 8.26823 3.74388C8.38501 3.69534 8.49105 3.62421 8.58026 3.53456C8.66946 3.44492 8.74008 3.33853 8.78804 3.22152C8.83601 3.1045 8.86038 2.97916 8.85976 2.8527C8.86051 2.72615 8.83623 2.60071 8.78832 2.48359C8.74041 2.36646 8.66981 2.25996 8.58059 2.17022C8.49137 2.08048 8.38529 2.00926 8.26845 1.96066C8.15161 1.91206 8.02631 1.88705 7.89977 1.88705ZM19.5421 1.71199H18.0518C18.0203 1.71259 17.9902 1.72529 17.9679 1.74747C17.9455 1.76964 17.9326 1.79958 17.9318 1.83105V4.69223H15.5953V1.83105C15.5945 1.79958 15.5815 1.76964 15.5592 1.74747C15.5368 1.72529 15.5068 1.71259 15.4753 1.71199H13.9713C13.9398 1.71259 13.9098 1.72529 13.8874 1.74747C13.8651 1.76964 13.8521 1.79958 13.8513 1.83105V9.60234C13.8513 9.66493 13.9148 9.72093 13.9713 9.72093H15.4753C15.5068 9.72034 15.5368 9.70763 15.5592 9.68546C15.5815 9.66328 15.5945 9.63335 15.5953 9.60187V6.27952H17.9322L17.9181 9.60187C17.9181 9.66493 17.9746 9.72093 18.0381 9.72093H19.5416C19.5731 9.72034 19.6032 9.70763 19.6255 9.68546C19.6479 9.66328 19.6608 9.63335 19.6616 9.60187V1.83152C19.6608 1.80005 19.6479 1.77011 19.6255 1.74794C19.6032 1.72576 19.5731 1.71306 19.5416 1.71246L19.5421 1.71199ZM6.21976 5.1534V9.16846C6.21976 9.1967 6.21271 9.24517 6.17741 9.25929C6.17741 9.25929 5.29506 9.88187 3.84047 9.88187C2.08282 9.88234 0 9.33646 0 5.74117C0 2.14587 1.82118 1.40517 3.60047 1.41176C5.13929 1.41176 5.76047 1.75434 5.85929 1.8174C5.88753 1.8527 5.90165 1.88046 5.90165 1.91529L5.60518 3.16046C5.60518 3.22352 5.54212 3.30023 5.464 3.27952C5.20988 3.20234 4.82871 3.04893 3.93224 3.04893C2.89459 3.04893 1.77929 3.34211 1.77929 5.6574C1.77929 7.9727 2.83812 8.24564 3.60047 8.24564C4.24988 8.24564 4.48282 8.16846 4.48282 8.16846V6.55999H3.44518C3.36753 6.55999 3.31106 6.50352 3.31106 6.44093V5.15387C3.31106 5.09081 3.36753 5.03529 3.44518 5.03529H6.08518C6.16329 5.03529 6.21976 5.09034 6.21976 5.1534Z" fill="#E6E6E6"/>
</svg>
