<svg width="16" height="16" viewBox="0 0 16 16" fill="none" xmlns="http://www.w3.org/2000/svg">
<path d="M0.0625 8.01148C0.0625 3.62598 3.6145 0.0739746 8 0.0739746C11.7001 0.0739746 14.8071 2.60272 15.6876 6.0271H12.6795C12.5631 5.82394 12.4245 5.63429 12.2664 5.4616C12.3457 5.2631 12.6235 4.44947 12.187 3.3581C12.187 3.3581 11.5222 3.13972 10.0042 4.1716C9.36925 3.9931 8.6945 3.90372 8.01987 3.90372C7.34525 3.90372 6.6705 3.9931 6.0355 4.1716C4.5175 3.14972 3.85275 3.3581 3.85275 3.3581C3.41613 4.44935 3.694 5.2631 3.77338 5.4616C3.26738 6.01722 2.95975 6.7316 2.95975 7.59485C2.95975 9.72697 3.86987 10.6993 5.0235 11.1582V12.7781C4.587 12.7426 4.1155 12.5291 3.7535 11.9208C3.60475 11.6827 3.15825 11.0973 2.53312 11.1071C1.86837 11.1171 2.26525 11.4842 2.54312 11.6331C2.88037 11.8216 3.26738 12.526 3.35663 12.7543C3.48463 13.1141 3.8445 13.7381 5.0235 13.7746V15.3705C2.11325 14.1926 0.062625 11.3485 0.062625 8.0116L0.0625 8.01148Z" fill="#24292E"/>
<path d="M15.6214 7.98341L13.7815 7.09754C13.6776 7.04751 13.5607 7.03102 13.447 7.05035C13.3333 7.06967 13.2284 7.12386 13.1469 7.20541L7.37186 12.201C7.33359 12.2359 7.30303 12.2784 7.28213 12.3258C7.26123 12.3732 7.25045 12.4245 7.25049 12.4762C7.25052 12.528 7.26137 12.5793 7.28233 12.6266C7.3033 12.674 7.33392 12.7164 7.37224 12.7513L8.36023 13.6947C8.42455 13.753 8.50723 13.7871 8.59399 13.7909C8.68074 13.7948 8.76612 13.7682 8.83536 13.7158L13.953 9.74779L15.1589 8.41804C15.2824 8.28179 15.4214 8.12029 15.6042 8.13929C15.7807 8.15779 15.9374 8.30304 15.9374 8.50754V8.48629C15.9373 8.38124 15.9076 8.27834 15.8517 8.18939C15.7958 8.10044 15.716 8.02905 15.6214 7.98341Z" fill="url(#paint0_linear_130_177)"/>
<path d="M15.6214 14.985L13.7816 15.8708C13.6776 15.9209 13.5607 15.9374 13.4471 15.918C13.3334 15.8987 13.2285 15.8445 13.1469 15.763L7.37193 10.2713C7.33364 10.2364 7.30306 10.1939 7.28215 10.1465C7.26124 10.0991 7.25045 10.0479 7.25049 9.99608C7.25052 9.94427 7.26138 9.89304 7.28235 9.84567C7.30333 9.79829 7.33397 9.75582 7.3723 9.72097L8.3603 8.77772C8.4246 8.71935 8.50728 8.68528 8.59403 8.6814C8.68079 8.67752 8.76617 8.70408 8.83543 8.75647L13.9531 13.2206L15.1589 14.5505C15.2824 14.6867 15.4214 14.8482 15.6043 14.8292C15.7809 14.8106 15.9374 14.6653 15.9374 14.4608V14.4822C15.9374 14.5873 15.9077 14.6902 15.8518 14.7791C15.7959 14.8681 15.716 14.9393 15.6214 14.985Z" fill="url(#paint1_linear_130_177)"/>
<path d="M13.7812 15.8712C13.6773 15.9212 13.5604 15.9377 13.4466 15.9184C13.3329 15.899 13.228 15.8448 13.1465 15.7632C13.3525 15.9691 13.9527 15.8232 13.9527 15.532V7.4367C13.9527 7.14545 13.3525 6.99958 13.1465 7.20545C13.228 7.12388 13.3329 7.06967 13.4467 7.05034C13.5604 7.03102 13.6773 7.04752 13.7812 7.09758L15.6209 7.7342C15.7155 7.77981 15.7954 7.85118 15.8514 7.94013C15.9073 8.02908 15.937 8.132 15.9371 8.23708V14.7316C15.9371 14.9461 15.8141 15.1416 15.6209 15.2346L13.7812 15.8712Z" fill="url(#paint2_linear_130_177)"/>
<defs>
<linearGradient id="paint0_linear_130_177" x1="11.5938" y1="7.04217" x2="11.5938" y2="13.791" gradientUnits="userSpaceOnUse">
<stop stop-color="#0196CA"/>
<stop offset="1" stop-color="#0065A9"/>
</linearGradient>
<linearGradient id="paint1_linear_130_177" x1="11.5939" y1="8.6812" x2="11.5939" y2="15.9262" gradientUnits="userSpaceOnUse">
<stop stop-color="#01A7DE"/>
<stop offset="1" stop-color="#007ACC"/>
</linearGradient>
<linearGradient id="paint2_linear_130_177" x1="14.5425" y1="7.04209" x2="14.5425" y2="15.9261" gradientUnits="userSpaceOnUse">
<stop stop-color="#2EC2F6"/>
<stop offset="1" stop-color="#1F9CF0"/>
</linearGradient>
</defs>
</svg>
