<svg width="28" height="28" viewBox="0 0 28 28" fill="none" xmlns="http://www.w3.org/2000/svg">
<path d="M0.186035 11.5347H1.26666V15.4678H3.26604V16.4653H0.186035V11.5347ZM3.74291 13.125H4.77979V16.4631H3.74291V13.125ZM4.26135 11.4647C4.38033 11.4647 4.49663 11.4999 4.59556 11.566C4.69448 11.6321 4.77159 11.7261 4.81712 11.836C4.86265 11.9459 4.87456 12.0669 4.85135 12.1836C4.82814 12.3003 4.77085 12.4075 4.68672 12.4916C4.60259 12.5757 4.4954 12.633 4.37871 12.6562C4.26201 12.6794 4.14106 12.6675 4.03114 12.622C3.92122 12.5765 3.82727 12.4994 3.76117 12.4004C3.69507 12.3015 3.65978 12.1852 3.65978 12.0662C3.65978 11.9067 3.72316 11.7537 3.83598 11.6409C3.94879 11.528 4.1018 11.4647 4.26135 11.4647ZM9.11979 11.5347H10.1567V14.4812L11.3335 13.1206H12.6045L11.2438 14.6672L12.576 16.4653H11.2723L10.1698 14.8137H10.1567V16.4653H9.11979V11.5347ZM5.3551 13.125H6.34385V13.5822H6.35697C6.45671 13.4119 6.60067 13.2717 6.77358 13.1766C6.9465 13.0815 7.14193 13.0349 7.33916 13.0418C8.39135 13.0418 8.58385 13.7331 8.58385 14.6322V16.4653H7.55572V14.84C7.55572 14.4528 7.55572 13.965 7.01541 13.965C6.4751 13.965 6.39197 14.3872 6.39197 14.8225V16.474H5.3551V13.125Z" fill="#1D1D1B"/>
<path d="M14.7895 14.4047C14.7916 14.3205 14.7766 14.2368 14.7454 14.1586C14.7141 14.0804 14.6673 14.0094 14.6078 13.9499C14.5482 13.8903 14.4772 13.8435 14.399 13.8123C14.3209 13.781 14.2371 13.766 14.153 13.7681C13.9717 13.7566 13.7932 13.817 13.656 13.9361C13.5189 14.0552 13.4342 14.2236 13.4202 14.4047H14.7895ZM15.6645 15.8856C15.4915 16.093 15.2746 16.2594 15.0295 16.3729C14.7844 16.4864 14.5171 16.5441 14.247 16.5419C13.2102 16.5419 12.3789 15.8506 12.3789 14.7765C12.3789 13.7025 13.2102 13.0134 14.247 13.0134C15.2161 13.0134 15.8242 13.7047 15.8242 14.7765V15.1025H13.418C13.4466 15.2879 13.5415 15.4567 13.6851 15.5774C13.8288 15.6981 14.0113 15.7625 14.1989 15.7587C14.3467 15.7585 14.492 15.7209 14.6212 15.6494C14.7505 15.5778 14.8596 15.4747 14.9383 15.3497L15.6645 15.8856ZM17.9877 13.93C17.8183 13.9248 17.6513 13.9702 17.508 14.0605C17.3646 14.1507 17.2515 14.2817 17.183 14.4367C17.1146 14.5916 17.0939 14.7635 17.1237 14.9303C17.1536 15.097 17.2325 15.2511 17.3504 15.3727C17.4682 15.4944 17.6198 15.5781 17.7855 15.6131C17.9512 15.6481 18.1237 15.6328 18.2807 15.5693C18.4377 15.5057 18.5722 15.3967 18.6669 15.2563C18.7616 15.1158 18.8123 14.9503 18.8123 14.7809C18.8216 14.6685 18.8067 14.5554 18.7684 14.4493C18.7302 14.3432 18.6697 14.2465 18.5908 14.1658C18.512 14.0851 18.4168 14.0223 18.3116 13.9816C18.2064 13.9409 18.0937 13.9233 17.9811 13.93M19.7748 16.4631H18.8123V16.0256C18.6921 16.186 18.5367 16.3167 18.3581 16.4077C18.1795 16.4987 17.9825 16.5476 17.782 16.5506C16.7845 16.5506 16.1283 15.8309 16.1283 14.8137C16.1283 13.8797 16.7102 13.0222 17.6595 13.0222C17.8591 13.0046 18.06 13.0352 18.2454 13.1113C18.4308 13.1874 18.5952 13.3069 18.7248 13.4597H18.738V11.5347H19.7748V16.4631Z" fill="#1D1D1B"/>
<path d="M27.2955 10.5H21.3302C21.1948 10.4988 21.0645 10.5513 20.9677 10.646C20.871 10.7407 20.8157 10.8699 20.814 11.0053V16.9947C20.8157 17.13 20.871 17.2592 20.9677 17.3539C21.0645 17.4486 21.1948 17.5011 21.3302 17.5H27.2955C27.3627 17.5008 27.4295 17.4885 27.4919 17.4635C27.5544 17.4386 27.6113 17.4016 27.6594 17.3547C27.7076 17.3078 27.746 17.2518 27.7725 17.1901C27.799 17.1283 27.8131 17.0619 27.814 16.9947V11.0053C27.8131 10.9381 27.799 10.8717 27.7725 10.8099C27.746 10.7481 27.7076 10.6922 27.6594 10.6453C27.6113 10.5983 27.5544 10.5613 27.4919 10.5364C27.4295 10.5115 27.3627 10.4991 27.2955 10.5Z" fill="#0076B2"/>
<path d="M21.8507 13.125H22.8898V16.4653H21.8507V13.125ZM22.3691 11.4647C22.4881 11.4647 22.6044 11.4999 22.7034 11.566C22.8023 11.6321 22.8794 11.7261 22.9249 11.836C22.9704 11.9459 22.9824 12.0669 22.9591 12.1836C22.9359 12.3003 22.8786 12.4075 22.7945 12.4916C22.7104 12.5757 22.6032 12.633 22.4865 12.6562C22.3698 12.6794 22.2489 12.6675 22.1389 12.622C22.029 12.5765 21.9351 12.4994 21.869 12.4004C21.8029 12.3015 21.7676 12.1852 21.7676 12.0662C21.7676 11.9067 21.831 11.7537 21.9438 11.6409C22.0566 11.528 22.2096 11.4647 22.3691 11.4647ZM23.5395 13.125H24.5348V13.5822H24.5479C24.6476 13.4119 24.7916 13.2717 24.9645 13.1766C25.1374 13.0815 25.3328 13.0349 25.5301 13.0418C26.5823 13.0418 26.7748 13.7331 26.7748 14.6322V16.4653H25.7379V14.84C25.7379 14.4528 25.7379 13.965 25.1976 13.965C24.6573 13.965 24.5741 14.3872 24.5741 14.8225V16.474H23.5373L23.5395 13.125Z" fill="white"/>
</svg>
