<svg width="32" height="32" viewBox="0 0 32 32" fill="none" xmlns="http://www.w3.org/2000/svg">
<path d="M0.212402 12.9325H1.4474V17.4275H3.7324V18.5675H0.212402V12.9325ZM4.2774 14.75H5.4624V18.565H4.2774V14.75ZM4.8699 12.8525C5.00588 12.8525 5.1388 12.8928 5.25186 12.9684C5.36492 13.0439 5.45303 13.1513 5.50507 13.2769C5.5571 13.4025 5.57072 13.5408 5.54419 13.6741C5.51766 13.8075 5.45219 13.93 5.35604 14.0261C5.25989 14.1223 5.13739 14.1878 5.00403 14.2143C4.87066 14.2408 4.73243 14.2272 4.60681 14.1752C4.48118 14.1231 4.37381 14.035 4.29827 13.922C4.22272 13.8089 4.1824 13.676 4.1824 13.54C4.1824 13.3577 4.25483 13.1828 4.38377 13.0539C4.5127 12.9249 4.68757 12.8525 4.8699 12.8525ZM10.4224 12.9325H11.6074V16.3L12.9524 14.745H14.4049L12.8499 16.5125L14.3724 18.5675H12.8824L11.6224 16.68H11.6074V18.5675H10.4224V12.9325ZM6.1199 14.75H7.2499V15.2725H7.2649C7.37889 15.0779 7.54341 14.9177 7.74103 14.809C7.93865 14.7003 8.162 14.6471 8.3874 14.655C9.5899 14.655 9.8099 15.445 9.8099 16.4725V18.5675H8.6349V16.71C8.6349 16.2675 8.6349 15.71 8.0174 15.71C7.3999 15.71 7.3049 16.1925 7.3049 16.69V18.5775H6.1199V14.75Z" fill="#E6E6E6"/>
<path d="M16.9025 16.2125C16.9049 16.1163 16.8877 16.0206 16.852 15.9313C16.8163 15.8419 16.7628 15.7608 16.6947 15.6927C16.6267 15.6247 16.5455 15.5712 16.4562 15.5355C16.3668 15.4998 16.2712 15.4826 16.175 15.485C15.9678 15.4719 15.7638 15.5409 15.607 15.677C15.4503 15.8132 15.3535 16.0055 15.3375 16.2125H16.9025ZM17.9025 17.905C17.7047 18.142 17.4568 18.3322 17.1767 18.4619C16.8965 18.5916 16.5911 18.6576 16.2825 18.655C15.0975 18.655 14.1475 17.865 14.1475 16.6375C14.1475 15.41 15.0975 14.6225 16.2825 14.6225C17.39 14.6225 18.085 15.4125 18.085 16.6375V17.01H15.335C15.3676 17.2219 15.4761 17.4148 15.6403 17.5527C15.8044 17.6907 16.0131 17.7643 16.2275 17.76C16.3963 17.7598 16.5624 17.7168 16.7101 17.635C16.8579 17.5533 16.9825 17.4354 17.0725 17.2925L17.9025 17.905ZM20.5575 15.67C20.364 15.664 20.1731 15.716 20.0092 15.8191C19.8454 15.9223 19.7161 16.072 19.6379 16.2491C19.5597 16.4262 19.5361 16.6226 19.5701 16.8132C19.6042 17.0038 19.6944 17.1798 19.8291 17.3189C19.9638 17.4579 20.137 17.5535 20.3264 17.5935C20.5158 17.6336 20.7129 17.6161 20.8924 17.5435C21.0718 17.4709 21.2255 17.3463 21.3337 17.1858C21.442 17.0253 21.4999 16.8361 21.5 16.6425C21.5106 16.514 21.4935 16.3848 21.4498 16.2635C21.4061 16.1422 21.3369 16.0317 21.2468 15.9395C21.1567 15.8473 21.0479 15.7755 20.9277 15.729C20.8075 15.6825 20.6786 15.6624 20.55 15.67M22.6 18.565H21.5V18.065C21.3625 18.2483 21.185 18.3977 20.9808 18.5017C20.7767 18.6057 20.5515 18.6616 20.3225 18.665C19.1825 18.665 18.4325 17.8425 18.4325 16.68C18.4325 15.6125 19.0975 14.6325 20.1825 14.6325C20.4106 14.6125 20.6402 14.6474 20.852 14.7344C21.0639 14.8214 21.2518 14.9579 21.4 15.1325H21.415V12.9325H22.6V18.565ZM31.15 11.75H24.34C24.2626 11.749 24.1859 11.7634 24.1142 11.7924C24.0425 11.8214 23.9772 11.8644 23.9223 11.9188C23.8674 11.9733 23.8239 12.0381 23.7943 12.1096C23.7647 12.181 23.7496 12.2577 23.75 12.335V19.1725C23.7506 19.2492 23.7664 19.325 23.7964 19.3956C23.8265 19.4662 23.8702 19.5302 23.925 19.5838C23.9798 19.6375 24.0447 19.6798 24.1159 19.7083C24.1871 19.7368 24.2633 19.751 24.34 19.75H31.15C31.2274 19.752 31.3045 19.7386 31.3767 19.7106C31.4489 19.6825 31.5149 19.6404 31.5707 19.5867C31.6265 19.533 31.6711 19.4687 31.7019 19.3976C31.7326 19.3265 31.749 19.25 31.75 19.1725V12.335C31.75 12.2569 31.7344 12.1796 31.704 12.1076C31.6737 12.0356 31.6293 11.9705 31.5733 11.916C31.5174 11.8614 31.4512 11.8187 31.3784 11.7902C31.3057 11.7617 31.228 11.748 31.15 11.75ZM26.12 18.5675H24.935V14.75H26.12V18.5675ZM25.5275 14.2325C25.3915 14.2325 25.2586 14.1922 25.1455 14.1166C25.0324 14.0411 24.9443 13.9337 24.8923 13.8081C24.8403 13.6825 24.8266 13.5442 24.8532 13.4109C24.8797 13.2775 24.9452 13.155 25.0413 13.0589C25.1375 12.9627 25.26 12.8972 25.3933 12.8707C25.5267 12.8442 25.6649 12.8578 25.7906 12.9098C25.9162 12.9619 26.0236 13.05 26.0991 13.1631C26.1746 13.2761 26.215 13.409 26.215 13.545C26.215 13.7273 26.1425 13.9022 26.0136 14.0311C25.8847 14.1601 25.7098 14.2325 25.5275 14.2325ZM30.56 18.5675H29.375V16.7125C29.375 16.27 29.375 15.7125 28.76 15.7125C28.145 15.7125 28.0475 16.195 28.0475 16.6925V18.58H26.8625V14.75H28V15.275H28.015C28.1293 15.0809 28.2939 14.9212 28.4915 14.8129C28.6891 14.7047 28.9123 14.6518 29.1375 14.66C30.3375 14.66 30.56 15.45 30.56 16.4775V18.5675Z" fill="#E6E6E6"/>
</svg>
