<svg width="28" height="28" viewBox="0 0 28 28" fill="none" xmlns="http://www.w3.org/2000/svg">
<path d="M4.66683 23.3334C4.02516 23.3334 3.47586 23.1049 3.01891 22.648C2.56197 22.1911 2.3335 21.6417 2.3335 21.0001V7.00008C2.3335 6.35841 2.56197 5.80911 3.01891 5.35216C3.47586 4.89522 4.02516 4.66675 4.66683 4.66675H23.3335C23.9752 4.66675 24.5245 4.89522 24.9814 5.35216C25.4384 5.80911 25.6668 6.35841 25.6668 7.00008V21.0001C25.6668 21.6417 25.4384 22.1911 24.9814 22.648C24.5245 23.1049 23.9752 23.3334 23.3335 23.3334H4.66683ZM14.0002 15.1667L4.66683 9.33342V21.0001H23.3335V9.33342L14.0002 15.1667ZM14.0002 12.8334L23.3335 7.00008H4.66683L14.0002 12.8334ZM4.66683 9.33342V7.00008V21.0001V9.33342Z" fill="#C4E3FE"/>
</svg>
