<svg width="28" height="28" viewBox="0 0 28 28" fill="none" xmlns="http://www.w3.org/2000/svg">
<path d="M4.66683 23.3334C4.02516 23.3334 3.47586 23.1049 3.01891 22.648C2.56197 22.1911 2.3335 21.6417 2.3335 21.0001V7.00008C2.3335 6.35841 2.56197 5.80911 3.01891 5.35216C3.47586 4.89522 4.02516 4.66675 4.66683 4.66675H11.6668L14.0002 7.00008H23.3335C23.9752 7.00008 24.5245 7.22855 24.9814 7.6855C25.4384 8.14244 25.6668 8.69175 25.6668 9.33342V21.0001C25.6668 21.6417 25.4384 22.1911 24.9814 22.648C24.5245 23.1049 23.9752 23.3334 23.3335 23.3334H4.66683ZM4.66683 21.0001H23.3335V9.33342H13.0377L10.7043 7.00008H4.66683V21.0001Z" fill="#C4E3FE"/>
</svg>
