<svg width="32" height="32" viewBox="0 0 32 32" fill="none" xmlns="http://www.w3.org/2000/svg">
<path d="M24.5 0H7.5C3.35786 0 0 3.35786 0 7.5V24.5C0 28.6421 3.35786 32 7.5 32H24.5C28.6421 32 32 28.6421 32 24.5V7.5C32 3.35786 28.6421 0 24.5 0Z" fill="#242938"/>
<path d="M16.0002 18.3689C17.2882 18.3689 18.3322 17.3247 18.3322 16.0369C18.3322 14.749 17.2882 13.7049 16.0002 13.7049C14.7122 13.7049 13.6682 14.749 13.6682 16.0369C13.6682 17.3247 14.7123 18.3689 16.0002 18.3689Z" fill="#00D8FF"/>
<path d="M16.0002 11.2954C19.1312 11.2954 22.0399 11.7446 24.233 12.4998C26.8754 13.4094 28.5 14.7883 28.5 16.0369C28.5 17.338 26.7782 18.8029 23.9406 19.743C21.7954 20.4538 18.9724 20.8248 16.0002 20.8248C12.953 20.8248 10.0674 20.4765 7.89787 19.7351C5.15312 18.797 3.5 17.3133 3.5 16.0369C3.5 14.7984 5.05125 13.4301 7.6565 12.5219C9.85775 11.7544 12.8381 11.2954 15.9998 11.2954H16.0002Z" stroke="#00D8FF" stroke-width="0.556938"/>
<path d="M11.8726 13.6797C13.4369 10.9675 15.279 8.67225 17.0287 7.14975C19.1367 5.31512 21.143 4.59662 22.2245 5.22025C23.3516 5.87025 23.7605 8.09375 23.1574 11.0215C22.7017 13.2349 21.6125 15.8656 20.1276 18.4404C18.6052 21.0801 16.8621 23.4059 15.1362 24.9144C12.9524 26.8234 10.841 27.5142 9.73537 26.8766C8.6625 26.2584 8.25225 24.2307 8.767 21.5201C9.20187 19.2297 10.2932 16.4186 11.8721 13.6797H11.8726Z" stroke="#00D8FF" stroke-width="0.556938"/>
<path d="M11.8766 18.4473C10.308 15.738 9.23996 12.9953 8.79421 10.719C8.25759 7.97639 8.63696 5.87951 9.71759 5.25401C10.8437 4.60201 12.9741 5.35826 15.2093 7.34301C16.8993 8.84351 18.6347 11.1006 20.1238 13.6729C21.6506 16.3101 22.7948 18.982 23.24 21.2305C23.8032 24.076 23.3473 26.2501 22.2427 26.8895C21.171 27.51 19.2096 26.8531 17.1182 25.0534C15.3512 23.5329 13.4607 21.1835 11.8766 18.4473Z" stroke="#00D8FF" stroke-width="0.556938"/>
</svg>
