<svg width="32" height="36" viewBox="0 0 32 36" fill="none" xmlns="http://www.w3.org/2000/svg">
<g filter="url(#filter0_d_78_166)">
<path d="M19.8666 6.80001C19.8666 6.80001 19.5999 6.88001 19.1466 7.02668C19.0666 6.78668 18.9599 6.48001 18.7999 6.18668C18.2932 5.21335 17.5466 4.70668 16.6399 4.69335C16.5732 4.69335 16.5199 4.69335 16.4532 4.70668C16.4266 4.68001 16.3999 4.64001 16.3732 4.61335C15.9866 4.18668 15.4799 3.98668 14.8799 4.00001C13.7199 4.04001 12.5599 4.88001 11.6132 6.37335C10.9466 7.42668 10.4532 8.74668 10.3066 9.76001C8.97324 10.1733 8.0399 10.4667 8.01324 10.4667C7.33324 10.68 7.3199 10.7067 7.22657 11.3333C7.1599 11.8133 5.3999 25.4667 5.3999 25.4667L20.0399 28V6.77335C19.9732 6.77335 19.9066 6.78668 19.8666 6.80001ZM16.4799 7.85335C15.7066 8.09335 14.8532 8.36001 14.0132 8.61335C14.2532 7.69335 14.7066 6.78668 15.2666 6.18668C15.4799 5.96001 15.7599 5.72001 16.1066 5.57335C16.4266 6.25335 16.4932 7.20001 16.4799 7.85335ZM14.8932 4.77335C15.1599 4.77335 15.3999 4.82668 15.5999 4.96001C15.2799 5.12001 14.9866 5.36001 14.6932 5.66668C13.9599 6.45335 13.3866 7.69335 13.1599 8.88001C12.4532 9.09335 11.7732 9.30668 11.1332 9.50668C11.5332 7.62668 13.1066 4.82668 14.8932 4.77335ZM12.6266 15.4267C12.7066 16.6667 15.9866 16.9467 16.1732 19.8667C16.3199 22.16 14.9599 23.7333 12.9866 23.8533C10.6399 24 9.33324 22.6133 9.33324 22.6133L9.82657 20.4933C9.82657 20.4933 11.1332 21.48 12.1732 21.4133C12.8532 21.3733 13.0932 20.8133 13.0799 20.4267C12.9732 18.8 10.3066 18.8933 10.1466 16.2267C9.9999 13.9733 11.4799 11.7067 14.7332 11.4933C15.9999 11.4133 16.6399 11.7333 16.6399 11.7333L15.8932 14.52C15.8932 14.52 15.0666 14.1467 14.0799 14.2C12.6399 14.2933 12.6132 15.2 12.6266 15.4267ZM17.2532 7.61335C17.2399 7.02668 17.1732 6.20001 16.8932 5.49335C17.7732 5.66668 18.2132 6.65335 18.3999 7.25335C18.0666 7.36001 17.6799 7.48001 17.2532 7.61335ZM20.5199 27.9467L26.5999 26.44C26.5999 26.44 23.9866 8.76001 23.9732 8.64001C23.9599 8.52001 23.8532 8.45335 23.7599 8.44001C23.6666 8.42668 21.9599 8.40001 21.9599 8.40001C21.9599 8.40001 20.9199 7.38668 20.5199 7.00001V27.9467Z" fill="#00D8FF"/>
</g>
<defs>
<filter id="filter0_d_78_166" x="-4" y="0" width="40" height="40" filterUnits="userSpaceOnUse" color-interpolation-filters="sRGB">
<feFlood flood-opacity="0" result="BackgroundImageFix"/>
<feColorMatrix in="SourceAlpha" type="matrix" values="0 0 0 0 0 0 0 0 0 0 0 0 0 0 0 0 0 0 127 0" result="hardAlpha"/>
<feOffset dy="4"/>
<feGaussianBlur stdDeviation="2"/>
<feComposite in2="hardAlpha" operator="out"/>
<feColorMatrix type="matrix" values="0 0 0 0 0 0 0 0 0 0 0 0 0 0 0 0 0 0 0.25 0"/>
<feBlend mode="normal" in2="BackgroundImageFix" result="effect1_dropShadow_78_166"/>
<feBlend mode="normal" in="SourceGraphic" in2="effect1_dropShadow_78_166" result="shape"/>
</filter>
</defs>
</svg>
